<svg xmlns="http://www.w3.org/2000/svg" width="201" height="59" fill="none"><g clip-path="url(#a)"><path fill="#fff" d="M0 0h201v59H0z"/><path stroke="#1B1D21" stroke-width="2" d="M196.133.82H4.102A3.28 3.28 0 0 0 .82 4.096v50.806a3.28 3.28 0 0 0 3.282 3.278h192.031a3.28 3.28 0 0 0 3.282-3.278V4.097A3.28 3.28 0 0 0 196.133.82Z"/><path fill="#1B1D21" stroke="#1B1D21" stroke-miterlimit="10" stroke-width=".2" d="M71.881 15.451c0 1.13-.282 2.117-.989 2.823-.847.846-1.837 1.27-3.108 1.27-1.272 0-2.26-.424-3.109-1.27-.847-.847-1.271-1.835-1.271-3.105s.424-2.258 1.271-3.105c.848-.847 1.837-1.27 3.109-1.27.565 0 1.13.141 1.695.423.566.282.99.565 1.272.988l-.707.706c-.565-.706-1.271-.988-2.26-.988-.848 0-1.696.282-2.26.988-.707.564-.99 1.411-.99 2.399s.283 1.835.99 2.4c.706.564 1.412.987 2.26.987.989 0 1.695-.282 2.402-.988.424-.423.706-.988.706-1.694h-3.108v-.987h4.097v.423Zm6.5-3.528h-3.814v2.681h3.532v.988h-3.532v2.682h3.814v.987h-4.945v-8.467h4.945v1.129Zm4.663 7.338h-1.13v-7.48H79.51v-.987h5.934v.988h-2.4v7.48Zm6.499 0v-8.467h1.13v8.467h-1.13Zm5.935 0h-1.13v-7.48h-2.402v-.987h5.793v.988h-2.403v7.48h.142Zm13.422-.987c-.847.846-1.837 1.27-3.108 1.27-1.272 0-2.261-.424-3.109-1.27-.847-.847-1.272-1.835-1.272-3.105s.425-2.258 1.272-3.105c.848-.847 1.837-1.27 3.109-1.27 1.271 0 2.261.423 3.108 1.27.848.847 1.272 1.835 1.272 3.105a4.375 4.375 0 0 1-1.272 3.105Zm-5.369-.706c.566.564 1.413.988 2.261.988.848 0 1.695-.282 2.261-.988a3.403 3.403 0 0 0 .988-2.4c0-.987-.282-1.834-.988-2.398-.566-.565-1.413-.988-2.261-.988-.848 0-1.695.282-2.261.988a3.404 3.404 0 0 0-.989 2.399c0 .846.283 1.693.989 2.399Zm8.195 1.693v-8.467h1.272l4.097 6.633v-6.634h1.131v8.468h-1.131l-4.38-6.915v6.915h-.989Z"/><path fill="#1B1D21" d="M101.128 31.68c-3.39 0-6.075 2.54-6.075 6.069 0 3.387 2.685 6.068 6.075 6.068 3.391 0 6.076-2.54 6.076-6.068 0-3.528-2.685-6.069-6.076-6.069Zm0 9.597c-1.837 0-3.39-1.552-3.39-3.67 0-2.116 1.553-3.668 3.39-3.668 1.837 0 3.391 1.41 3.391 3.669 0 2.258-1.554 3.67-3.391 3.67Zm-13.14-9.597c-3.39 0-6.075 2.54-6.075 6.069 0 3.387 2.684 6.068 6.075 6.068s6.076-2.54 6.076-6.068c0-3.528-2.684-6.069-6.076-6.069Zm0 9.597c-1.836 0-3.39-1.552-3.39-3.67 0-2.116 1.554-3.668 3.39-3.668 1.837 0 3.391 1.41 3.391 3.669 0 2.258-1.554 3.67-3.391 3.67Zm-15.683-7.762v2.54h6.075c-.14 1.412-.706 2.54-1.412 3.246-.848.847-2.261 1.835-4.663 1.835-3.815 0-6.64-2.964-6.64-6.774s2.966-6.774 6.64-6.774c1.978 0 3.532.847 4.662 1.835l1.837-1.835c-1.554-1.411-3.532-2.54-6.358-2.54-5.086 0-9.466 4.234-9.466 9.314s4.38 9.314 9.466 9.314c2.826 0 4.804-.846 6.5-2.681 1.695-1.694 2.26-4.093 2.26-5.927 0-.565 0-1.13-.141-1.553h-8.76Zm64.147 1.976c-.565-1.411-1.979-3.81-5.087-3.81-3.108 0-5.651 2.399-5.651 6.068 0 3.387 2.543 6.068 5.934 6.068 2.684 0 4.38-1.693 4.945-2.681l-1.978-1.411c-.706.988-1.555 1.693-2.967 1.693-1.413 0-2.261-.564-2.968-1.834l8.054-3.387-.282-.706Zm-8.195 1.976c0-2.258 1.837-3.528 3.108-3.528.989 0 1.978.564 2.261 1.27l-5.369 2.258Zm-6.641 5.786h2.684v-17.64h-2.684v17.64Zm-4.239-10.302c-.707-.706-1.836-1.412-3.25-1.412-2.967 0-5.793 2.682-5.793 6.069s2.685 5.927 5.793 5.927c1.414 0 2.543-.705 3.109-1.411h.141v.847c0 2.258-1.271 3.528-3.25 3.528-1.554 0-2.684-1.13-2.967-2.117l-2.261.988c.707 1.552 2.403 3.528 5.37 3.528 3.108 0 5.652-1.835 5.652-6.21V31.963h-2.544v.988Zm-3.108 8.326c-1.837 0-3.392-1.552-3.392-3.67 0-2.116 1.555-3.668 3.392-3.668s3.25 1.552 3.25 3.669-1.413 3.67-3.25 3.67Zm34.475-15.665h-6.358v17.64h2.684V36.62h3.674c2.967 0 5.793-2.117 5.793-5.504 0-3.387-2.826-5.504-5.793-5.504Zm.141 8.609h-3.815v-6.069h3.815c1.978 0 3.109 1.694 3.109 2.964-.141 1.411-1.272 3.105-3.109 3.105Zm16.249-2.54c-1.979 0-3.957.846-4.663 2.681l2.402.988c.565-.988 1.413-1.27 2.402-1.27 1.413 0 2.685.846 2.826 2.258v.14c-.424-.281-1.554-.705-2.685-.705-2.543 0-5.086 1.411-5.086 3.952 0 2.399 2.119 3.951 4.38 3.951 1.837 0 2.684-.846 3.391-1.693h.141v1.411h2.543V36.62c-.282-3.246-2.684-4.94-5.651-4.94Zm-.283 9.596c-.847 0-2.119-.423-2.119-1.552 0-1.412 1.554-1.835 2.826-1.835 1.13 0 1.695.282 2.402.565-.283 1.693-1.696 2.822-3.109 2.822Zm14.836-9.314-2.967 7.62h-.141l-3.109-7.62h-2.826l4.663 10.725-2.685 5.928h2.685l7.206-16.653h-2.826Zm-23.737 11.29h2.684v-17.64h-2.684v17.64ZM18.897 46.781c-.566-.282-.848-.988-.848-1.693V13.334c0-.564.141-.988.282-1.552.142-.283.424-.565.707-.847 6.076 6.068 12.01 12.137 17.944 18.205-6.075 5.645-12.01 11.573-18.085 17.641ZM42.916 22.93c-1.695 1.694-3.532 3.388-5.228 5.222-5.651-5.786-11.444-11.572-17.096-17.358 0 0 0-.141.141-.141 7.347 4.092 14.695 8.185 22.183 12.278ZM20.592 46.781c5.652-5.645 11.445-11.29 17.096-16.935 1.554 1.552 3.25 3.105 5.087 4.798-7.347 4.093-14.695 8.186-22.042 12.137h-.141ZM43.764 34.08c-1.836-1.694-3.532-3.387-5.369-5.08l5.51-5.505c.566.282 1.131.565 1.696.988 1.413.847 2.967 1.552 4.38 2.4.424.14.707.423.99.846.565.706.565 1.411 0 2.117-.283.282-.566.564-.99.706-1.978 1.27-4.097 2.399-6.217 3.528Z"/></g><defs><clipPath id="a"><path fill="#fff" d="M0 0h201v59H0z"/></clipPath></defs></svg>